<mxfile host="app.diagrams.net" agent="Mozilla/5.0 (Macintosh; Intel Mac OS X 10_15_7) AppleWebKit/537.36 (KHTML, like Gecko) Chrome/134.0.0.0 Safari/537.36" version="26.2.14">
  <diagram id="C5RBs43oDa-KdzZeNtuy" name="Page-1">
    <mxGraphModel dx="1220" dy="788" grid="1" gridSize="10" guides="1" tooltips="1" connect="1" arrows="1" fold="1" page="1" pageScale="1" pageWidth="827" pageHeight="1169" math="0" shadow="0" adaptiveColors="auto">
      <root>
        <mxCell id="WIyWlLk6GJQsqaUBKTNV-0" />
        <mxCell id="WIyWlLk6GJQsqaUBKTNV-1" parent="WIyWlLk6GJQsqaUBKTNV-0" />
        <mxCell id="MoG-zyVyeIgKmFG6NYfG-107" value="" style="rounded=0;whiteSpace=wrap;html=1;fillColor=none;dashed=1;" vertex="1" parent="WIyWlLk6GJQsqaUBKTNV-1">
          <mxGeometry x="30" y="200" width="230" height="370" as="geometry" />
        </mxCell>
        <mxCell id="MoG-zyVyeIgKmFG6NYfG-108" value="" style="rounded=0;whiteSpace=wrap;html=1;fillColor=none;dashed=1;" vertex="1" parent="WIyWlLk6GJQsqaUBKTNV-1">
          <mxGeometry x="270" y="200" width="230" height="370" as="geometry" />
        </mxCell>
        <mxCell id="MoG-zyVyeIgKmFG6NYfG-109" value="" style="rounded=0;whiteSpace=wrap;html=1;fillColor=none;dashed=1;" vertex="1" parent="WIyWlLk6GJQsqaUBKTNV-1">
          <mxGeometry x="510" y="200" width="230" height="370" as="geometry" />
        </mxCell>
        <mxCell id="WDem836P9A065s9cevRQ-0" value="LLM" style="shape=cube;whiteSpace=wrap;html=1;boundedLbl=1;backgroundOutline=1;darkOpacity=0.05;darkOpacity2=0.1;size=10;rounded=1;" parent="WIyWlLk6GJQsqaUBKTNV-1" vertex="1">
          <mxGeometry x="74.5" y="220" width="90" height="40" as="geometry" />
        </mxCell>
        <mxCell id="WDem836P9A065s9cevRQ-14" value="&lt;div&gt;&lt;br&gt;&lt;/div&gt;&lt;div&gt;&lt;span style=&quot;background-color: transparent; color: light-dark(rgb(0, 0, 0), rgb(255, 255, 255));&quot;&gt;Unlabeled Corpus&lt;/span&gt;&lt;/div&gt;" style="strokeWidth=2;html=1;shape=mxgraph.flowchart.database;whiteSpace=wrap;rounded=1;" parent="WIyWlLk6GJQsqaUBKTNV-1" vertex="1">
          <mxGeometry x="220" y="215" width="90" height="50" as="geometry" />
        </mxCell>
        <mxCell id="WDem836P9A065s9cevRQ-15" value="&lt;div&gt;&lt;br&gt;&lt;/div&gt;&lt;div&gt;&lt;br&gt;&lt;/div&gt;" style="endArrow=classic;html=1;rounded=1;exitX=0;exitY=0.6;exitDx=0;exitDy=0;exitPerimeter=0;entryX=0;entryY=0;entryDx=90;entryDy=25;entryPerimeter=0;" parent="WIyWlLk6GJQsqaUBKTNV-1" source="WDem836P9A065s9cevRQ-14" edge="1" target="WDem836P9A065s9cevRQ-0">
          <mxGeometry width="50" height="50" relative="1" as="geometry">
            <mxPoint x="360.48" y="340" as="sourcePoint" />
            <mxPoint x="120" y="220" as="targetPoint" />
          </mxGeometry>
        </mxCell>
        <mxCell id="WDem836P9A065s9cevRQ-18" value="&lt;font style=&quot;font-size: 10px;&quot;&gt;&lt;i&gt;EX&lt;/i&gt;&amp;nbsp;&lt;/font&gt;&lt;div&gt;&lt;font style=&quot;font-size: 10px;&quot;&gt;Prompt&lt;/font&gt;&lt;/div&gt;" style="edgeLabel;html=1;align=center;verticalAlign=middle;resizable=0;points=[];rounded=1;" parent="WDem836P9A065s9cevRQ-15" vertex="1" connectable="0">
          <mxGeometry x="-0.1037" y="-1" relative="1" as="geometry">
            <mxPoint as="offset" />
          </mxGeometry>
        </mxCell>
        <mxCell id="WDem836P9A065s9cevRQ-19" value="&lt;div&gt;&lt;font style=&quot;background-color: transparent; color: light-dark(rgb(0, 0, 0), rgb(255, 255, 255)); font-size: 11px;&quot;&gt;&lt;br&gt;&lt;/font&gt;&lt;/div&gt;&lt;div&gt;&lt;font style=&quot;background-color: transparent; color: light-dark(rgb(0, 0, 0), rgb(255, 255, 255)); font-size: 11px;&quot;&gt;Aspect Se&lt;/font&gt;&lt;span style=&quot;background-color: transparent; color: light-dark(rgb(0, 0, 0), rgb(255, 255, 255));&quot;&gt;t&lt;/span&gt;&lt;/div&gt;" style="strokeWidth=2;html=1;shape=mxgraph.flowchart.database;whiteSpace=wrap;rounded=1;" parent="WIyWlLk6GJQsqaUBKTNV-1" vertex="1">
          <mxGeometry x="125" y="296" width="75" height="40" as="geometry" />
        </mxCell>
        <mxCell id="WDem836P9A065s9cevRQ-20" value="&lt;div&gt;&lt;br&gt;&lt;/div&gt;&lt;div&gt;&lt;font style=&quot;font-size: 11px;&quot;&gt;Category Set&lt;/font&gt;&lt;/div&gt;" style="strokeWidth=2;html=1;shape=mxgraph.flowchart.database;whiteSpace=wrap;rounded=1;" parent="WIyWlLk6GJQsqaUBKTNV-1" vertex="1">
          <mxGeometry x="40" y="296" width="75" height="40" as="geometry" />
        </mxCell>
        <mxCell id="WDem836P9A065s9cevRQ-23" value="" style="strokeWidth=1;html=1;shape=mxgraph.flowchart.annotation_2;align=left;labelPosition=right;pointerEvents=1;rotation=90;rounded=1;" parent="WIyWlLk6GJQsqaUBKTNV-1" vertex="1">
          <mxGeometry x="104.25" y="236.75" width="31" height="83.5" as="geometry" />
        </mxCell>
        <mxCell id="MoG-zyVyeIgKmFG6NYfG-1" value="Generated&amp;nbsp;&lt;div&gt;Triplets&lt;/div&gt;" style="strokeWidth=2;html=1;shape=mxgraph.flowchart.direct_data;whiteSpace=wrap;rounded=1;" vertex="1" parent="WIyWlLk6GJQsqaUBKTNV-1">
          <mxGeometry x="336" y="215" width="105" height="50" as="geometry" />
        </mxCell>
        <mxCell id="MoG-zyVyeIgKmFG6NYfG-5" value="&lt;font style=&quot;font-size: 11px;&quot;&gt;POS Tagging&lt;/font&gt;" style="rounded=1;whiteSpace=wrap;html=1;absoluteArcSize=1;arcSize=14;strokeWidth=2;" vertex="1" parent="WIyWlLk6GJQsqaUBKTNV-1">
          <mxGeometry x="40" y="353" width="160" height="27" as="geometry" />
        </mxCell>
        <mxCell id="MoG-zyVyeIgKmFG6NYfG-7" value="" style="endArrow=classic;html=1;rounded=1;exitX=0.5;exitY=1;exitDx=0;exitDy=0;exitPerimeter=0;entryX=0.765;entryY=-0.013;entryDx=0;entryDy=0;entryPerimeter=0;" edge="1" parent="WIyWlLk6GJQsqaUBKTNV-1">
          <mxGeometry width="50" height="50" relative="1" as="geometry">
            <mxPoint x="162.41" y="336" as="sourcePoint" />
            <mxPoint x="162.54999999999998" y="352.61" as="targetPoint" />
          </mxGeometry>
        </mxCell>
        <mxCell id="MoG-zyVyeIgKmFG6NYfG-10" value="" style="endArrow=classic;html=1;rounded=1;exitX=0.5;exitY=1;exitDx=0;exitDy=0;exitPerimeter=0;entryX=0.232;entryY=-0.008;entryDx=0;entryDy=0;entryPerimeter=0;" edge="1" parent="WIyWlLk6GJQsqaUBKTNV-1" source="WDem836P9A065s9cevRQ-20" target="MoG-zyVyeIgKmFG6NYfG-5">
          <mxGeometry width="50" height="50" relative="1" as="geometry">
            <mxPoint x="172" y="346" as="sourcePoint" />
            <mxPoint x="172" y="363" as="targetPoint" />
          </mxGeometry>
        </mxCell>
        <mxCell id="MoG-zyVyeIgKmFG6NYfG-11" value="LLM" style="shape=cube;whiteSpace=wrap;html=1;boundedLbl=1;backgroundOutline=1;darkOpacity=0.05;darkOpacity2=0.1;size=10;rounded=1;" vertex="1" parent="WIyWlLk6GJQsqaUBKTNV-1">
          <mxGeometry x="132.5" y="440" width="60" height="30" as="geometry" />
        </mxCell>
        <mxCell id="MoG-zyVyeIgKmFG6NYfG-12" value="" style="endArrow=classic;html=1;rounded=1;exitX=0.765;exitY=1.028;exitDx=0;exitDy=0;exitPerimeter=0;" edge="1" parent="WIyWlLk6GJQsqaUBKTNV-1" source="MoG-zyVyeIgKmFG6NYfG-5">
          <mxGeometry width="50" height="50" relative="1" as="geometry">
            <mxPoint x="77.07" y="380" as="sourcePoint" />
            <mxPoint x="163" y="436" as="targetPoint" />
          </mxGeometry>
        </mxCell>
        <mxCell id="MoG-zyVyeIgKmFG6NYfG-13" value="&lt;font style=&quot;font-size: 10px;&quot;&gt;&lt;i&gt;AX&lt;/i&gt; Prompt&lt;/font&gt;" style="edgeLabel;html=1;align=center;verticalAlign=middle;resizable=0;points=[];rounded=1;" vertex="1" connectable="0" parent="MoG-zyVyeIgKmFG6NYfG-12">
          <mxGeometry x="-0.1037" y="-1" relative="1" as="geometry">
            <mxPoint as="offset" />
          </mxGeometry>
        </mxCell>
        <mxCell id="MoG-zyVyeIgKmFG6NYfG-14" value="&lt;font style=&quot;font-size: 11px;&quot;&gt;Clustering&lt;/font&gt;" style="rounded=1;whiteSpace=wrap;html=1;absoluteArcSize=1;arcSize=14;strokeWidth=2;" vertex="1" parent="WIyWlLk6GJQsqaUBKTNV-1">
          <mxGeometry x="47.5" y="400" width="60" height="20" as="geometry" />
        </mxCell>
        <mxCell id="MoG-zyVyeIgKmFG6NYfG-15" value="&lt;div&gt;&lt;font style=&quot;background-color: transparent; color: light-dark(rgb(0, 0, 0), rgb(255, 255, 255)); font-size: 11px;&quot;&gt;&lt;br&gt;&lt;/font&gt;&lt;/div&gt;&lt;div&gt;&lt;font style=&quot;background-color: transparent; color: light-dark(rgb(0, 0, 0), rgb(255, 255, 255)); font-size: 10px;&quot;&gt;Extended&lt;/font&gt;&lt;/div&gt;&lt;div&gt;&lt;font style=&quot;font-size: 10px; background-color: transparent; color: light-dark(rgb(0, 0, 0), rgb(255, 255, 255));&quot;&gt;Aspect Se&lt;/font&gt;&lt;span style=&quot;font-size: 10px; background-color: transparent; color: light-dark(rgb(0, 0, 0), rgb(255, 255, 255));&quot;&gt;t&lt;/span&gt;&lt;/div&gt;" style="strokeWidth=2;html=1;shape=mxgraph.flowchart.database;whiteSpace=wrap;rounded=1;" vertex="1" parent="WIyWlLk6GJQsqaUBKTNV-1">
          <mxGeometry x="128.75" y="510" width="67.5" height="50" as="geometry" />
        </mxCell>
        <mxCell id="MoG-zyVyeIgKmFG6NYfG-16" value="&lt;div&gt;&lt;font style=&quot;background-color: transparent; color: light-dark(rgb(0, 0, 0), rgb(255, 255, 255)); font-size: 11px;&quot;&gt;&lt;br&gt;&lt;/font&gt;&lt;/div&gt;&lt;div&gt;&lt;font style=&quot;background-color: transparent; color: light-dark(rgb(0, 0, 0), rgb(255, 255, 255)); font-size: 10px;&quot;&gt;Grouped&lt;/font&gt;&lt;/div&gt;&lt;div&gt;&lt;font style=&quot;font-size: 10px; background-color: transparent; color: light-dark(rgb(0, 0, 0), rgb(255, 255, 255));&quot;&gt;Category Se&lt;/font&gt;&lt;span style=&quot;font-size: 10px; background-color: transparent; color: light-dark(rgb(0, 0, 0), rgb(255, 255, 255));&quot;&gt;t&lt;/span&gt;&lt;/div&gt;" style="strokeWidth=2;html=1;shape=mxgraph.flowchart.database;whiteSpace=wrap;rounded=1;" vertex="1" parent="WIyWlLk6GJQsqaUBKTNV-1">
          <mxGeometry x="45" y="510" width="65" height="50" as="geometry" />
        </mxCell>
        <mxCell id="MoG-zyVyeIgKmFG6NYfG-17" value="" style="endArrow=classic;html=1;rounded=1;entryX=0.5;entryY=0;entryDx=0;entryDy=0;entryPerimeter=0;exitX=0.499;exitY=0.998;exitDx=0;exitDy=0;exitPerimeter=0;" edge="1" parent="WIyWlLk6GJQsqaUBKTNV-1" source="MoG-zyVyeIgKmFG6NYfG-11" target="MoG-zyVyeIgKmFG6NYfG-15">
          <mxGeometry width="50" height="50" relative="1" as="geometry">
            <mxPoint x="165" y="500" as="sourcePoint" />
            <mxPoint x="162" y="490" as="targetPoint" />
          </mxGeometry>
        </mxCell>
        <mxCell id="MoG-zyVyeIgKmFG6NYfG-20" value="" style="endArrow=classic;html=1;rounded=1;exitX=0.5;exitY=1;exitDx=0;exitDy=0;entryX=0.493;entryY=-0.024;entryDx=0;entryDy=0;entryPerimeter=0;" edge="1" parent="WIyWlLk6GJQsqaUBKTNV-1" source="MoG-zyVyeIgKmFG6NYfG-14" target="MoG-zyVyeIgKmFG6NYfG-25">
          <mxGeometry width="50" height="50" relative="1" as="geometry">
            <mxPoint x="360.5" y="454" as="sourcePoint" />
            <mxPoint x="359.5" y="470" as="targetPoint" />
          </mxGeometry>
        </mxCell>
        <mxCell id="MoG-zyVyeIgKmFG6NYfG-24" value="&lt;font style=&quot;font-size: 10px;&quot;&gt;&lt;i&gt;CG&lt;/i&gt; Prompt&lt;/font&gt;" style="edgeLabel;html=1;align=center;verticalAlign=middle;resizable=0;points=[];rounded=1;" vertex="1" connectable="0" parent="MoG-zyVyeIgKmFG6NYfG-20">
          <mxGeometry x="-0.1068" y="-2" relative="1" as="geometry">
            <mxPoint as="offset" />
          </mxGeometry>
        </mxCell>
        <mxCell id="MoG-zyVyeIgKmFG6NYfG-22" value="" style="endArrow=classic;html=1;rounded=1;entryX=0.504;entryY=-0.091;entryDx=0;entryDy=0;exitX=0.232;exitY=0.987;exitDx=0;exitDy=0;exitPerimeter=0;entryPerimeter=0;" edge="1" parent="WIyWlLk6GJQsqaUBKTNV-1" source="MoG-zyVyeIgKmFG6NYfG-5" target="MoG-zyVyeIgKmFG6NYfG-14">
          <mxGeometry width="50" height="50" relative="1" as="geometry">
            <mxPoint x="80" y="380" as="sourcePoint" />
            <mxPoint x="160" y="400" as="targetPoint" />
          </mxGeometry>
        </mxCell>
        <mxCell id="MoG-zyVyeIgKmFG6NYfG-25" value="LLM" style="shape=cube;whiteSpace=wrap;html=1;boundedLbl=1;backgroundOutline=1;darkOpacity=0.05;darkOpacity2=0.1;size=10;rounded=1;" vertex="1" parent="WIyWlLk6GJQsqaUBKTNV-1">
          <mxGeometry x="47.5" y="460" width="60" height="30" as="geometry" />
        </mxCell>
        <mxCell id="MoG-zyVyeIgKmFG6NYfG-26" value="" style="endArrow=classic;html=1;rounded=1;exitX=0.506;exitY=1.012;exitDx=0;exitDy=0;exitPerimeter=0;entryX=0.5;entryY=0;entryDx=0;entryDy=0;entryPerimeter=0;" edge="1" parent="WIyWlLk6GJQsqaUBKTNV-1" source="MoG-zyVyeIgKmFG6NYfG-25" target="MoG-zyVyeIgKmFG6NYfG-16">
          <mxGeometry width="50" height="50" relative="1" as="geometry">
            <mxPoint x="362.5" y="510" as="sourcePoint" />
            <mxPoint x="80" y="500" as="targetPoint" />
          </mxGeometry>
        </mxCell>
        <mxCell id="MoG-zyVyeIgKmFG6NYfG-29" value="&lt;div&gt;&lt;br&gt;&lt;/div&gt;&lt;div&gt;Aspect-Sentiment&lt;/div&gt;&lt;div&gt;Set&lt;/div&gt;" style="strokeWidth=2;html=1;shape=mxgraph.flowchart.database;whiteSpace=wrap;rounded=1;" vertex="1" parent="WIyWlLk6GJQsqaUBKTNV-1">
          <mxGeometry x="336" y="379" width="100" height="60" as="geometry" />
        </mxCell>
        <mxCell id="MoG-zyVyeIgKmFG6NYfG-33" value="" style="endArrow=classic;html=1;rounded=1;entryX=0.5;entryY=1;entryDx=0;entryDy=0;entryPerimeter=0;" edge="1" parent="WIyWlLk6GJQsqaUBKTNV-1">
          <mxGeometry width="50" height="50" relative="1" as="geometry">
            <mxPoint x="386" y="461" as="sourcePoint" />
            <mxPoint x="386" y="439" as="targetPoint" />
          </mxGeometry>
        </mxCell>
        <mxCell id="MoG-zyVyeIgKmFG6NYfG-34" value="" style="endArrow=classic;html=1;rounded=1;entryX=0.505;entryY=1.003;entryDx=0;entryDy=0;entryPerimeter=0;exitX=0.5;exitY=0;exitDx=0;exitDy=0;exitPerimeter=0;" edge="1" parent="WIyWlLk6GJQsqaUBKTNV-1" source="MoG-zyVyeIgKmFG6NYfG-29" target="MoG-zyVyeIgKmFG6NYfG-52">
          <mxGeometry width="50" height="50" relative="1" as="geometry">
            <mxPoint x="385.76" y="375" as="sourcePoint" />
            <mxPoint x="385" y="350" as="targetPoint" />
          </mxGeometry>
        </mxCell>
        <mxCell id="MoG-zyVyeIgKmFG6NYfG-35" value="&lt;i&gt;DG&lt;/i&gt; Prompt" style="edgeLabel;html=1;align=center;verticalAlign=middle;resizable=0;points=[];rounded=1;" vertex="1" connectable="0" parent="MoG-zyVyeIgKmFG6NYfG-34">
          <mxGeometry x="0.0501" y="1" relative="1" as="geometry">
            <mxPoint y="3" as="offset" />
          </mxGeometry>
        </mxCell>
        <mxCell id="MoG-zyVyeIgKmFG6NYfG-40" value="" style="edgeStyle=segmentEdgeStyle;endArrow=classic;html=1;curved=0;rounded=0;endSize=8;startSize=8;exitX=1.015;exitY=0.602;exitDx=0;exitDy=0;exitPerimeter=0;entryX=0.505;entryY=1.084;entryDx=0;entryDy=0;entryPerimeter=0;" edge="1" parent="WIyWlLk6GJQsqaUBKTNV-1" source="MoG-zyVyeIgKmFG6NYfG-15" target="MoG-zyVyeIgKmFG6NYfG-51">
          <mxGeometry width="50" height="50" relative="1" as="geometry">
            <mxPoint x="209.3974999999998" y="539.55" as="sourcePoint" />
            <mxPoint x="317" y="460" as="targetPoint" />
          </mxGeometry>
        </mxCell>
        <mxCell id="MoG-zyVyeIgKmFG6NYfG-42" value="&lt;i&gt;AC &lt;/i&gt;Prompt" style="edgeLabel;html=1;align=center;verticalAlign=middle;resizable=0;points=[];rounded=1;" vertex="1" connectable="0" parent="MoG-zyVyeIgKmFG6NYfG-40">
          <mxGeometry x="0.4767" relative="1" as="geometry">
            <mxPoint x="22" y="-15" as="offset" />
          </mxGeometry>
        </mxCell>
        <mxCell id="MoG-zyVyeIgKmFG6NYfG-43" value="" style="endArrow=classic;html=1;rounded=1;exitX=0.5;exitY=-0.02;exitDx=0;exitDy=0;exitPerimeter=0;entryX=0.48;entryY=1.003;entryDx=0;entryDy=0;entryPerimeter=0;" edge="1" parent="WIyWlLk6GJQsqaUBKTNV-1" target="MoG-zyVyeIgKmFG6NYfG-1">
          <mxGeometry width="50" height="50" relative="1" as="geometry">
            <mxPoint x="386.3" y="300.00000000000006" as="sourcePoint" />
            <mxPoint x="386" y="270" as="targetPoint" />
          </mxGeometry>
        </mxCell>
        <mxCell id="MoG-zyVyeIgKmFG6NYfG-46" value="Filtered&lt;div&gt;Triplets&lt;/div&gt;" style="strokeWidth=2;html=1;shape=mxgraph.flowchart.direct_data;whiteSpace=wrap;rounded=1;" vertex="1" parent="WIyWlLk6GJQsqaUBKTNV-1">
          <mxGeometry x="572.5" y="430" width="105" height="50" as="geometry" />
        </mxCell>
        <mxCell id="MoG-zyVyeIgKmFG6NYfG-51" value="LLM" style="shape=cube;whiteSpace=wrap;html=1;boundedLbl=1;backgroundOutline=1;darkOpacity=0.05;darkOpacity2=0.1;size=10;rounded=1;" vertex="1" parent="WIyWlLk6GJQsqaUBKTNV-1">
          <mxGeometry x="341" y="460" width="90" height="40" as="geometry" />
        </mxCell>
        <mxCell id="MoG-zyVyeIgKmFG6NYfG-52" value="LLM" style="shape=cube;whiteSpace=wrap;html=1;boundedLbl=1;backgroundOutline=1;darkOpacity=0.05;darkOpacity2=0.1;size=10;rounded=1;" vertex="1" parent="WIyWlLk6GJQsqaUBKTNV-1">
          <mxGeometry x="341" y="300" width="90" height="40" as="geometry" />
        </mxCell>
        <mxCell id="MoG-zyVyeIgKmFG6NYfG-64" value="" style="rounded=1;whiteSpace=wrap;html=1;fillColor=none;" vertex="1" parent="WIyWlLk6GJQsqaUBKTNV-1">
          <mxGeometry x="526" y="215" width="200" height="120" as="geometry" />
        </mxCell>
        <mxCell id="MoG-zyVyeIgKmFG6NYfG-65" value="" style="edgeStyle=segmentEdgeStyle;endArrow=classic;html=1;curved=0;rounded=0;endSize=8;startSize=8;" edge="1" parent="WIyWlLk6GJQsqaUBKTNV-1">
          <mxGeometry width="50" height="50" relative="1" as="geometry">
            <mxPoint x="625.5" y="340" as="sourcePoint" />
            <mxPoint x="420" y="364" as="targetPoint" />
            <Array as="points">
              <mxPoint x="625" y="364" />
            </Array>
          </mxGeometry>
        </mxCell>
        <mxCell id="MoG-zyVyeIgKmFG6NYfG-76" value="" style="endArrow=classic;html=1;rounded=1;entryX=0.503;entryY=-0.052;entryDx=0;entryDy=0;entryPerimeter=0;exitX=0.5;exitY=1;exitDx=0;exitDy=0;" edge="1" parent="WIyWlLk6GJQsqaUBKTNV-1">
          <mxGeometry width="50" height="50" relative="1" as="geometry">
            <mxPoint x="626.0000000000001" y="335" as="sourcePoint" />
            <mxPoint x="626.315" y="427.4" as="targetPoint" />
          </mxGeometry>
        </mxCell>
        <mxCell id="MoG-zyVyeIgKmFG6NYfG-77" value="LLM" style="shape=cube;whiteSpace=wrap;html=1;boundedLbl=1;backgroundOutline=1;darkOpacity=0.05;darkOpacity2=0.1;size=10;rounded=1;" vertex="1" parent="WIyWlLk6GJQsqaUBKTNV-1">
          <mxGeometry x="660" y="230" width="60" height="30" as="geometry" />
        </mxCell>
        <mxCell id="MoG-zyVyeIgKmFG6NYfG-78" value="LLM" style="shape=cube;whiteSpace=wrap;html=1;boundedLbl=1;backgroundOutline=1;darkOpacity=0.05;darkOpacity2=0.1;size=10;rounded=1;" vertex="1" parent="WIyWlLk6GJQsqaUBKTNV-1">
          <mxGeometry x="660" y="290.25" width="60" height="30" as="geometry" />
        </mxCell>
        <mxCell id="MoG-zyVyeIgKmFG6NYfG-80" value="&lt;font style=&quot;font-size: 10px;&quot;&gt;Judgement&amp;nbsp;&lt;/font&gt;&lt;div&gt;&lt;font style=&quot;font-size: 10px;&quot;&gt;Module&lt;/font&gt;&lt;/div&gt;" style="ellipse;whiteSpace=wrap;html=1;rounded=1;" vertex="1" parent="WIyWlLk6GJQsqaUBKTNV-1">
          <mxGeometry x="540" y="223" width="80" height="42" as="geometry" />
        </mxCell>
        <mxCell id="MoG-zyVyeIgKmFG6NYfG-81" value="&lt;font style=&quot;font-size: 10px;&quot;&gt;Auto-Scoring Module&lt;/font&gt;" style="ellipse;whiteSpace=wrap;html=1;rounded=1;" vertex="1" parent="WIyWlLk6GJQsqaUBKTNV-1">
          <mxGeometry x="540" y="283" width="81.5" height="42" as="geometry" />
        </mxCell>
        <mxCell id="MoG-zyVyeIgKmFG6NYfG-97" value="" style="endArrow=classic;html=1;rounded=1;entryX=-0.004;entryY=0.215;entryDx=0;entryDy=0;entryPerimeter=0;" edge="1" parent="WIyWlLk6GJQsqaUBKTNV-1" target="MoG-zyVyeIgKmFG6NYfG-64">
          <mxGeometry width="50" height="50" relative="1" as="geometry">
            <mxPoint x="440" y="241" as="sourcePoint" />
            <mxPoint x="384" y="275" as="targetPoint" />
          </mxGeometry>
        </mxCell>
        <mxCell id="MoG-zyVyeIgKmFG6NYfG-99" value="" style="endArrow=classic;html=1;rounded=1;exitX=1;exitY=0.5;exitDx=0;exitDy=0;entryX=-0.005;entryY=0.488;entryDx=0;entryDy=0;entryPerimeter=0;" edge="1" parent="WIyWlLk6GJQsqaUBKTNV-1" source="MoG-zyVyeIgKmFG6NYfG-80" target="MoG-zyVyeIgKmFG6NYfG-77">
          <mxGeometry width="50" height="50" relative="1" as="geometry">
            <mxPoint x="384.3" y="310.00000000000006" as="sourcePoint" />
            <mxPoint x="384" y="275" as="targetPoint" />
          </mxGeometry>
        </mxCell>
        <mxCell id="MoG-zyVyeIgKmFG6NYfG-111" value="" style="endArrow=classic;html=1;rounded=1;exitX=1;exitY=0.5;exitDx=0;exitDy=0;entryX=-0.011;entryY=0.469;entryDx=0;entryDy=0;entryPerimeter=0;" edge="1" parent="WIyWlLk6GJQsqaUBKTNV-1" target="MoG-zyVyeIgKmFG6NYfG-78">
          <mxGeometry width="50" height="50" relative="1" as="geometry">
            <mxPoint x="621.5" y="304.75" as="sourcePoint" />
            <mxPoint x="661.5" y="305.75" as="targetPoint" />
          </mxGeometry>
        </mxCell>
        <mxCell id="MoG-zyVyeIgKmFG6NYfG-74" value="&lt;b&gt;High-Quality Sentences&lt;/b&gt;" style="text;html=1;align=center;verticalAlign=middle;resizable=0;points=[];autosize=1;strokeColor=none;fillColor=none;fontSize=10;fillStyle=auto;" vertex="1" parent="WIyWlLk6GJQsqaUBKTNV-1">
          <mxGeometry x="497" y="340" width="140" height="30" as="geometry" />
        </mxCell>
      </root>
    </mxGraphModel>
  </diagram>
</mxfile>
